{
    "asset" : {
        "generator" : "Khronos glTF Blender I/O v3.2.43",
        "version" : "2.0"
    },
    "extensionsUsed" : [
        "KHR_lights_punctual"
    ],
    "extensionsRequired" : [
        "KHR_lights_punctual"
    ],
    "extensions" : {
        "KHR_lights_punctual" : {
            "lights" : [
                {
                    "color" : [
                        1,
                        1,
                        1
                    ],
                    "intensity" : 1000,
                    "type" : "point",
                    "name" : "Light"
                }
            ]
        }
    },
    "scene" : 0,
    "scenes" : [
        {
            "name" : "Scene",
            "nodes" : [
                0,
                1,
                2,
                3,
                4,
                5
            ]
        }
    ],
    "nodes" : [
        {
            "mesh" : 0,
            "name" : "common.002",
            "rotation" : [
                0.7071057558059692,
                -0.001263837213627994,
                0.001263837213627994,
                0.7071055769920349
            ],
            "scale" : [
                0.007380041293799877,
                0.0073800417594611645,
                0.007380041293799877
            ]
        },
        {
            "mesh" : 1,
            "name" : "c1.005",
            "rotation" : [
                0.0012637224281206727,
                0.7071055769920349,
                -0.707105815410614,
                0.0012637218460440636
            ],
            "scale" : [
                0.007827455177903175,
                0.007655876222997904,
                0.007655876222997904
            ]
        },
        {
            "mesh" : 2,
            "name" : "cardanoangepasst",
            "rotation" : [
                0.7071056962013245,
                -0.0012638370972126722,
                0.001263837213627994,
                0.7071056365966797
            ],
            "scale" : [
                0.0059554181061685085,
                0.00738004082813859,
                0.005955417640507221
            ]
        },
        {
            "mesh" : 3,
            "name" : "scratch1.002",
            "rotation" : [
                0.0012637219624593854,
                0.7071056962013245,
                -0.7071056365966797,
                0.0012637220788747072
            ],
            "scale" : [
                0.001386359566822648,
                0.005000000353902578,
                0.001386261428706348
            ]
        },
        {
            "extensions" : {
                "KHR_lights_punctual" : {
                    "light" : 0
                }
            },
            "name" : "Light",
            "rotation" : [
                -0.2841663062572479,
                0.7269423604011536,
                0.34203392267227173,
                0.5232754349708557
            ],
            "translation" : [
                4.076245307922363,
                5.903861999511719,
                -1.0054539442062378
            ]
        },
        {
            "camera" : 0,
            "name" : "Camera",
            "rotation" : [
                -0.20997299253940582,
                0.3857799470424652,
                0.09062844514846802,
                0.8937962055206299
            ],
            "translation" : [
                7.358891487121582,
                4.958309173583984,
                6.925790786743164
            ]
        }
    ],
    "cameras" : [
        {
            "name" : "Camera",
            "perspective" : {
                "aspectRatio" : 1.7777777777777777,
                "yfov" : 0.39959648408210363,
                "zfar" : 100,
                "znear" : 0.10000000149011612
            },
            "type" : "perspective"
        }
    ],
    "materials" : [
        {
            "doubleSided" : true,
            "name" : "palette.026",
            "pbrMetallicRoughness" : {
                "baseColorTexture" : {
                    "index" : 0
                },
                "metallicFactor" : 0
            }
        },
        {
            "doubleSided" : true,
            "name" : "palette.009",
            "pbrMetallicRoughness" : {
                "baseColorTexture" : {
                    "index" : 1
                },
                "metallicFactor" : 0
            }
        },
        {
            "doubleSided" : true,
            "name" : "palette.006",
            "pbrMetallicRoughness" : {
                "baseColorTexture" : {
                    "index" : 2
                },
                "metallicFactor" : 0
            }
        },
        {
            "doubleSided" : true,
            "name" : "palette.170",
            "pbrMetallicRoughness" : {
                "baseColorTexture" : {
                    "index" : 3
                },
                "metallicFactor" : 0
            }
        }
    ],
    "meshes" : [
        {
            "name" : "common.002",
            "primitives" : [
                {
                    "attributes" : {
                        "POSITION" : 0,
                        "NORMAL" : 1,
                        "TEXCOORD_0" : 2
                    },
                    "indices" : 3,
                    "material" : 0
                }
            ]
        },
        {
            "name" : "c1.007",
            "primitives" : [
                {
                    "attributes" : {
                        "POSITION" : 4,
                        "NORMAL" : 5,
                        "TEXCOORD_0" : 6
                    },
                    "indices" : 7,
                    "material" : 1
                }
            ]
        },
        {
            "name" : "cardanoangepasst",
            "primitives" : [
                {
                    "attributes" : {
                        "POSITION" : 8,
                        "NORMAL" : 9,
                        "TEXCOORD_0" : 10
                    },
                    "indices" : 11,
                    "material" : 2
                }
            ]
        },
        {
            "name" : "scratch1.002",
            "primitives" : [
                {
                    "attributes" : {
                        "POSITION" : 12,
                        "NORMAL" : 13,
                        "TEXCOORD_0" : 14
                    },
                    "indices" : 15,
                    "material" : 3
                }
            ]
        }
    ],
    "textures" : [
        {
            "sampler" : 0,
            "source" : 0
        },
        {
            "sampler" : 0,
            "source" : 1
        },
        {
            "sampler" : 0,
            "source" : 2
        },
        {
            "sampler" : 0,
            "source" : 3
        }
    ],
    "images" : [
        {
            "bufferView" : 4,
            "mimeType" : "image/png",
            "name" : "cardano_img0"
        },
        {
            "bufferView" : 9,
            "mimeType" : "image/png",
            "name" : "cardano_img1"
        },
        {
            "bufferView" : 14,
            "mimeType" : "image/png",
            "name" : "cardano_img2"
        },
        {
            "bufferView" : 19,
            "mimeType" : "image/png",
            "name" : "cardano_img3"
        }
    ],
    "accessors" : [
        {
            "bufferView" : 0,
            "componentType" : 5126,
            "count" : 1057,
            "max" : [
                5.167670726776123,
                0.2999989688396454,
                -6.6628217697143555
            ],
            "min" : [
                -5.232329368591309,
                -0.3000010550022125,
                -23.262821197509766
            ],
            "type" : "VEC3"
        },
        {
            "bufferView" : 1,
            "componentType" : 5126,
            "count" : 1057,
            "type" : "VEC3"
        },
        {
            "bufferView" : 2,
            "componentType" : 5126,
            "count" : 1057,
            "type" : "VEC2"
        },
        {
            "bufferView" : 3,
            "componentType" : 5123,
            "count" : 1692,
            "type" : "SCALAR"
        },
        {
            "bufferView" : 5,
            "componentType" : 5126,
            "count" : 280,
            "max" : [
                3.972498655319214,
                0.29143187403678894,
                -9.262884140014648
            ],
            "min" : [
                0.7724982500076294,
                0.19143187999725342,
                -11.662883758544922
            ],
            "type" : "VEC3"
        },
        {
            "bufferView" : 6,
            "componentType" : 5126,
            "count" : 280,
            "type" : "VEC3"
        },
        {
            "bufferView" : 7,
            "componentType" : 5126,
            "count" : 280,
            "type" : "VEC2"
        },
        {
            "bufferView" : 8,
            "componentType" : 5123,
            "count" : 468,
            "type" : "SCALAR"
        },
        {
            "bufferView" : 10,
            "componentType" : 5126,
            "count" : 780,
            "max" : [
                3.9599575996398926,
                0.3303837776184082,
                -15.078205108642578
            ],
            "min" : [
                -3.940042495727539,
                0.030383575707674026,
                -22.378206253051758
            ],
            "type" : "VEC3"
        },
        {
            "bufferView" : 11,
            "componentType" : 5126,
            "count" : 780,
            "type" : "VEC3"
        },
        {
            "bufferView" : 12,
            "componentType" : 5126,
            "count" : 780,
            "type" : "VEC2"
        },
        {
            "bufferView" : 13,
            "componentType" : 5123,
            "count" : 1080,
            "type" : "SCALAR"
        },
        {
            "bufferView" : 15,
            "componentType" : 5126,
            "count" : 350,
            "max" : [
                1.26685631275177,
                0.3193148076534271,
                -119.9384536743164
            ],
            "min" : [
                0.16685627400875092,
                0.2193148136138916,
                -121.5384521484375
            ],
            "type" : "VEC3"
        },
        {
            "bufferView" : 16,
            "componentType" : 5126,
            "count" : 350,
            "type" : "VEC3"
        },
        {
            "bufferView" : 17,
            "componentType" : 5126,
            "count" : 350,
            "type" : "VEC2"
        },
        {
            "bufferView" : 18,
            "componentType" : 5123,
            "count" : 636,
            "type" : "SCALAR"
        }
    ],
    "bufferViews" : [
        {
            "buffer" : 0,
            "byteLength" : 12684,
            "byteOffset" : 0
        },
        {
            "buffer" : 0,
            "byteLength" : 12684,
            "byteOffset" : 12684
        },
        {
            "buffer" : 0,
            "byteLength" : 8456,
            "byteOffset" : 25368
        },
        {
            "buffer" : 0,
            "byteLength" : 3384,
            "byteOffset" : 33824
        },
        {
            "buffer" : 0,
            "byteLength" : 141,
            "byteOffset" : 37208
        },
        {
            "buffer" : 0,
            "byteLength" : 3360,
            "byteOffset" : 37352
        },
        {
            "buffer" : 0,
            "byteLength" : 3360,
            "byteOffset" : 40712
        },
        {
            "buffer" : 0,
            "byteLength" : 2240,
            "byteOffset" : 44072
        },
        {
            "buffer" : 0,
            "byteLength" : 936,
            "byteOffset" : 46312
        },
        {
            "buffer" : 0,
            "byteLength" : 141,
            "byteOffset" : 47248
        },
        {
            "buffer" : 0,
            "byteLength" : 9360,
            "byteOffset" : 47392
        },
        {
            "buffer" : 0,
            "byteLength" : 9360,
            "byteOffset" : 56752
        },
        {
            "buffer" : 0,
            "byteLength" : 6240,
            "byteOffset" : 66112
        },
        {
            "buffer" : 0,
            "byteLength" : 2160,
            "byteOffset" : 72352
        },
        {
            "buffer" : 0,
            "byteLength" : 141,
            "byteOffset" : 74512
        },
        {
            "buffer" : 0,
            "byteLength" : 4200,
            "byteOffset" : 74656
        },
        {
            "buffer" : 0,
            "byteLength" : 4200,
            "byteOffset" : 78856
        },
        {
            "buffer" : 0,
            "byteLength" : 2800,
            "byteOffset" : 83056
        },
        {
            "buffer" : 0,
            "byteLength" : 1272,
            "byteOffset" : 85856
        },
        {
            "buffer" : 0,
            "byteLength" : 141,
            "byteOffset" : 87128
        }
    ],
    "samplers" : [
        {
            "magFilter" : 9729,
            "minFilter" : 9987
        }
    ],
    "buffers" : [
        {
            "byteLength" : 87272,
            "uri" : "data:application/octet-stream;base64,"
        }
    ]
}
